<svg width="121" height="34" viewBox="0 0 121 34" fill="none" xmlns="http://www.w3.org/2000/svg">
<path d="M50.6004 20.4222C53.956 20.4222 56.2004 18.2222 56.2004 14.9333C56.2004 11.6444 53.956 9.44444 50.6004 9.44444H43.9338V25.8889H47.5338V20.4222H50.6004ZM49.8004 12.6444C51.5338 12.6444 52.4004 13.4 52.4004 14.9333C52.4004 16.4667 51.5338 17.2222 49.8004 17.2222H47.5338V12.6444H49.8004ZM62.6428 26.1778C65.6872 26.1778 67.8872 24.6 68.2872 22.1333H65.1539C64.9095 22.9333 63.9983 23.4 62.7095 23.4C61.1983 23.4 60.3761 22.7111 60.1761 21.2444L68.2428 21.2V20.3333C68.2428 16.7111 66.065 14.4222 62.5761 14.4222C59.2206 14.4222 56.8872 16.8444 56.8872 20.3111C56.8872 23.7333 59.2872 26.1778 62.6428 26.1778ZM62.5984 17.2C63.9761 17.2 64.8428 17.9556 64.8428 19.1333H60.2206C60.4872 17.8 61.2428 17.2 62.5984 17.2ZM70.2694 31.2222H73.6916V24.7778C74.336 25.6222 75.7582 26.2 77.2916 26.2C80.6027 26.2 82.5138 23.6667 82.5138 20.1556C82.5138 16.5778 80.3582 14.4222 77.2694 14.4222C75.6916 14.4222 74.2916 15.1111 73.6694 16.1333L73.4916 14.7778H70.2694V31.2222ZM73.7138 20.3333C73.7138 18.6667 74.8249 17.5556 76.4249 17.5556C78.0471 17.5556 79.0694 18.6889 79.0694 20.3333C79.0694 21.9778 78.0471 23.1111 76.4249 23.1111C74.8249 23.1111 73.7138 22 73.7138 20.3333ZM84.4838 31.2222H87.906V24.7778C88.5504 25.6222 89.9727 26.2 91.506 26.2C94.8171 26.2 96.7282 23.6667 96.7282 20.1556C96.7282 16.5778 94.5727 14.4222 91.4838 14.4222C89.906 14.4222 88.506 15.1111 87.8838 16.1333L87.706 14.7778H84.4838V31.2222ZM87.9282 20.3333C87.9282 18.6667 89.0393 17.5556 90.6393 17.5556C92.2615 17.5556 93.2838 18.6889 93.2838 20.3333C93.2838 21.9778 92.2615 23.1111 90.6393 23.1111C89.0393 23.1111 87.9282 22 87.9282 20.3333ZM103.854 26.1778C106.898 26.1778 109.098 24.6 109.498 22.1333H106.365C106.12 22.9333 105.209 23.4 103.92 23.4C102.409 23.4 101.587 22.7111 101.387 21.2444L109.454 21.2V20.3333C109.454 16.7111 107.276 14.4222 103.787 14.4222C100.432 14.4222 98.0982 16.8444 98.0982 20.3111C98.0982 23.7333 100.498 26.1778 103.854 26.1778ZM103.809 17.2C105.187 17.2 106.054 17.9556 106.054 19.1333H101.432C101.698 17.8 102.454 17.2 103.809 17.2ZM119.125 14.7778C118.658 14.6667 118.214 14.6222 117.814 14.6222C116.325 14.6222 115.347 15.3556 114.88 16.4444L114.703 14.8H111.48V25.8889H114.903V21.0667C114.903 18.8667 116.08 18 118.036 18H119.125V14.7778Z" fill="#FFFAFF"/>
<rect y="0.333496" width="33.3333" height="33.3333" rx="8.88889" fill="#9D0AFF"/>
<rect x="10" y="10.3333" width="13.3333" height="4.44444" rx="0.888889" fill="#FFFAFF"/>
<rect x="10" y="19.2221" width="13.3333" height="4.44444" rx="0.888889" fill="#FFFAFF"/>
</svg>
