<svg width="60" height="60" viewBox="0 0 60 60" fill="none" xmlns="http://www.w3.org/2000/svg">
<rect width="60" height="60" rx="16.2" fill="#9D0AFF"/>
<path fill-rule="evenodd" clip-rule="evenodd" d="M40.1549 16.8696C42.4651 16.2096 44.6009 18.3454 43.9409 20.6556L38.1081 41.0704C37.1358 44.4733 32.5903 45.1125 30.7173 42.1097L26.6377 35.5694C26.2847 35.0035 25.807 34.5258 25.2411 34.1728L18.7008 30.0932C15.698 28.2202 16.3372 23.6747 19.7401 22.7024L40.1549 16.8696ZM41.0329 19.6705C41.018 19.6663 40.9954 19.6628 40.9561 19.6741L20.5414 25.5069C19.5691 25.7846 19.3865 27.0834 20.2444 27.6185L26.7847 31.6981C27.7279 32.2864 28.5241 33.0826 29.1124 34.0258L33.192 40.5661C33.7271 41.424 35.0258 41.2414 35.3036 40.2691L41.1364 19.8544C41.1476 19.8151 41.1442 19.7925 41.14 19.7776C41.1346 19.7581 41.1219 19.7338 41.0993 19.7112C41.0767 19.6886 41.0524 19.6759 41.0329 19.6705Z" fill="#FFFAFF"/>
<path fill-rule="evenodd" clip-rule="evenodd" d="M34.0513 26.7594C34.6208 27.3289 34.6208 28.2523 34.0513 28.8218L28.8953 33.9778C28.3258 34.5473 27.4024 34.5473 26.8329 33.9778C26.2634 33.4083 26.2634 32.4849 26.8329 31.9154L31.9889 26.7594C32.5584 26.1899 33.4818 26.1899 34.0513 26.7594Z" fill="#FFFAFF"/>
</svg>
