<svg width="24" height="19" viewBox="0 0 24 19" fill="none" xmlns="http://www.w3.org/2000/svg">
<path d="M21.1423 4.6183C21.049 4.68857 20.9965 4.80057 21.0003 4.91735C21.0049 5.06092 21.0049 5.20496 21.0049 5.34947C21.0049 11.689 16.1787 18.9989 7.35631 19C7.35523 19 7.35433 18.9991 7.35433 18.9981C7.35433 18.997 7.35346 18.9961 7.35238 18.9961C5.12923 18.9991 2.94512 18.4563 0.989316 17.4226C0.743069 17.2925 0.864383 16.9142 1.14291 16.9149C2.98551 16.9166 4.78279 16.3898 6.32517 15.4071C6.59417 15.2357 6.46917 14.8142 6.15768 14.7456C4.69552 14.4236 3.45603 13.432 2.82626 12.0585C2.7188 11.8241 2.92941 11.5811 3.18658 11.5993C3.24622 11.6035 3.3059 11.6066 3.3656 11.6086C3.72326 11.6205 3.75601 11.1263 3.44164 10.9553C1.92989 10.1331 0.936345 8.53419 0.936345 6.73985C0.936345 6.71278 0.96548 6.69565 0.989295 6.70853C1.2953 6.87413 1.61735 7.00503 1.94965 7.09969C2.27735 7.19303 2.44999 6.76307 2.22108 6.51068C0.953908 5.1135 0.60863 3.06807 1.40316 1.31199C1.501 1.09573 1.78864 1.07231 1.94489 1.251C4.27144 3.91162 7.54345 5.56445 11.0668 5.85829C11.2915 5.87702 11.4649 5.66932 11.4346 5.44594C11.2279 3.91857 11.7678 2.37274 12.9032 1.304C14.7895 -0.470048 17.7308 -0.422972 19.5601 1.37814C19.6433 1.46005 19.7611 1.49927 19.8752 1.47449C20.5913 1.31895 21.2861 1.08178 21.9469 0.768843C22.2294 0.635101 22.5346 0.896382 22.3853 1.17088C22.2291 1.45817 22.0442 1.72833 21.834 1.97735C21.5979 2.25701 21.8328 2.78728 22.1842 2.68485C22.2195 2.67456 22.2547 2.66406 22.2899 2.65336C22.615 2.55454 22.9 2.91917 22.6788 3.17704C22.2208 3.71079 21.7058 4.19415 21.1423 4.6183Z" fill="#FFFAFF"/>
</svg>
