<svg width="48" height="48" viewBox="0 0 48 48" fill="none" xmlns="http://www.w3.org/2000/svg">
<rect opacity="0.12" width="48" height="48" rx="10" fill="#9D0AFF"/>
<path d="M33.3333 24C34.8061 24 36.0307 25.209 35.7073 26.6459C34.5024 32.0003 29.7183 36 24 36C17.3726 36 12 30.6274 12 24C12 18.2817 15.9997 13.4976 21.3541 12.2927C22.791 11.9693 24 13.1939 24 14.6667V21.3333C24 22.8061 25.1939 24 26.6667 24H33.3333Z" stroke="#9D0AFF" stroke-width="2.66667"/>
<path d="M35.5617 17.3816C34.7612 15.0696 32.9304 13.2388 30.6184 12.4383C29.2267 11.9565 28 13.1939 28 14.6667L28 17.3333C28 18.8061 29.1939 20 30.6667 20L33.3333 20C34.8061 20 36.0435 18.7733 35.5617 17.3816Z" stroke="#9D0AFF" stroke-width="2.66667"/>
</svg>
