<svg width="20" height="19" viewBox="0 0 20 19" fill="none" xmlns="http://www.w3.org/2000/svg">
<g clip-path="url(#clip0_156_509)">
<path d="M19.3483 4.38776L12.6841 11.052C11.941 11.7932 10.9343 12.2095 9.88476 12.2095C8.83522 12.2095 7.82851 11.7932 7.08543 11.052L0.421182 4.38776C0.410099 4.51284 0.384766 4.62605 0.384766 4.75034V14.2503C0.386023 15.2998 0.803464 16.3059 1.54552 17.0479C2.28758 17.79 3.29367 18.2074 4.3431 18.2087H15.4264C16.4759 18.2074 17.4819 17.79 18.224 17.0479C18.9661 16.3059 19.3835 15.2998 19.3848 14.2503V4.75034C19.3848 4.62605 19.3594 4.51284 19.3483 4.38776Z" fill="#FFFAFF"/>
<path d="M11.5909 11.1406L18.822 3.90871C18.4717 3.32788 17.9777 2.84711 17.3875 2.51279C16.7973 2.17846 16.131 2.00185 15.4527 2H4.36933C3.69105 2.00185 3.02469 2.17846 2.43452 2.51279C1.84435 2.84711 1.3503 3.32788 1 3.90871L8.23109 11.1406C8.67725 11.585 9.2813 11.8345 9.911 11.8345C10.5407 11.8345 11.1448 11.585 11.5909 11.1406Z" fill="#FFFAFF"/>
</g>
<defs>
<clipPath id="clip0_156_509">
<rect width="19" height="19" fill="white" transform="translate(0.384766)"/>
</clipPath>
</defs>
</svg>
