<svg width="60" height="60" viewBox="0 0 60 60" fill="none" xmlns="http://www.w3.org/2000/svg">
<rect width="60" height="60" rx="18" fill="#00F59B"/>
<path fill-rule="evenodd" clip-rule="evenodd" d="M15.8333 21.5C15.8333 18.3704 18.3703 15.8334 21.4999 15.8334H22.9166C26.0462 15.8334 28.5833 18.3704 28.5833 21.5V22.9167C28.5833 26.0463 26.0462 28.5834 22.9166 28.5834H21.4999C18.3703 28.5834 15.8333 26.0463 15.8333 22.9167V21.5ZM21.4999 18.6667C19.9351 18.6667 18.6666 19.9352 18.6666 21.5V22.9167C18.6666 24.4815 19.9351 25.75 21.4999 25.75H22.9166C24.4814 25.75 25.7499 24.4815 25.7499 22.9167V21.5C25.7499 19.9352 24.4814 18.6667 22.9166 18.6667H21.4999ZM31.4166 21.5C31.4166 18.3704 33.9536 15.8334 37.0833 15.8334H38.4999C41.6295 15.8334 44.1666 18.3704 44.1666 21.5V22.9167C44.1666 26.0463 41.6295 28.5834 38.4999 28.5834H37.0833C33.9536 28.5834 31.4166 26.0463 31.4166 22.9167V21.5ZM37.0833 18.6667C35.5184 18.6667 34.2499 19.9352 34.2499 21.5V22.9167C34.2499 24.4815 35.5184 25.75 37.0833 25.75H38.4999C40.0647 25.75 41.3333 24.4815 41.3333 22.9167V21.5C41.3333 19.9352 40.0647 18.6667 38.4999 18.6667H37.0833ZM15.8333 37.0834C15.8333 33.9538 18.3703 31.4167 21.4999 31.4167H22.9166C26.0462 31.4167 28.5833 33.9538 28.5833 37.0834V38.5C28.5833 41.6297 26.0462 44.1667 22.9166 44.1667H21.4999C18.3703 44.1667 15.8333 41.6297 15.8333 38.5V37.0834ZM21.4999 34.25C19.9351 34.25 18.6666 35.5186 18.6666 37.0834V38.5C18.6666 40.0649 19.9351 41.3334 21.4999 41.3334H22.9166C24.4814 41.3334 25.7499 40.0648 25.7499 38.5V37.0834C25.7499 35.5186 24.4814 34.25 22.9166 34.25H21.4999ZM31.4166 37.0834C31.4166 33.9538 33.9536 31.4167 37.0833 31.4167H38.4999C41.6295 31.4167 44.1666 33.9538 44.1666 37.0834V38.5C44.1666 41.6297 41.6295 44.1667 38.4999 44.1667H37.0833C33.9536 44.1667 31.4166 41.6297 31.4166 38.5V37.0834ZM37.0833 34.25C35.5184 34.25 34.2499 35.5186 34.2499 37.0834V38.5C34.2499 40.0648 35.5184 41.3334 37.0833 41.3334H38.4999C40.0647 41.3334 41.3333 40.0648 41.3333 38.5V37.0834C41.3333 35.5186 40.0647 34.25 38.4999 34.25H37.0833Z" fill="#151531"/>
</svg>
