<svg width="60" height="60" viewBox="0 0 60 60" fill="none" xmlns="http://www.w3.org/2000/svg">
<rect width="60" height="60" rx="18" fill="#00F59B"/>
<path fill-rule="evenodd" clip-rule="evenodd" d="M30.4999 18.8333C28.0837 18.8333 26.1249 20.792 26.1249 23.2083C26.1249 25.6245 28.0837 27.5833 30.4999 27.5833C32.9162 27.5833 34.8749 25.6245 34.8749 23.2083C34.8749 20.792 32.9162 18.8333 30.4999 18.8333ZM23.2083 23.2083C23.2083 19.1812 26.4728 15.9166 30.4999 15.9166C34.527 15.9166 37.7916 19.1812 37.7916 23.2083C37.7916 27.2354 34.527 30.5 30.4999 30.5C26.4728 30.5 23.2083 27.2354 23.2083 23.2083Z" fill="#151531"/>
<path fill-rule="evenodd" clip-rule="evenodd" d="M30.5 34.875C25.4798 34.875 22.8408 36.6539 21.5242 38.8091C21.066 39.5591 21.1813 40.2667 21.7406 40.9167C22.3508 41.6257 23.4542 42.1667 24.6667 42.1667H36.3334C37.5459 42.1667 38.6492 41.6257 39.2594 40.9167C39.8188 40.2667 39.9341 39.5591 39.4759 38.8091C38.1593 36.6539 35.5203 34.875 30.5 34.875ZM19.0352 37.2886C21.0029 34.0674 24.7204 31.9584 30.5 31.9584C36.2797 31.9584 39.9972 34.0674 41.9649 37.2886C43.1862 39.2879 42.7187 41.3684 41.4701 42.8192C40.2724 44.211 38.3426 45.0834 36.3334 45.0834H24.6667C22.6575 45.0834 20.7277 44.211 19.5299 42.8192C18.2814 41.3684 17.8139 39.2879 19.0352 37.2886Z" fill="#151531"/>
</svg>
