<svg width="60" height="60" viewBox="0 0 60 60" fill="none" xmlns="http://www.w3.org/2000/svg">
<rect width="60" height="60" rx="18" fill="#9D0AFF"/>
<path fill-rule="evenodd" clip-rule="evenodd" d="M15.8337 24.3335C15.8337 21.2039 18.3708 18.6669 21.5004 18.6669H38.5004C41.63 18.6669 44.1671 21.2039 44.1671 24.3335V35.6669C44.1671 38.7965 41.63 41.3335 38.5004 41.3335H21.5004C18.3708 41.3335 15.8337 38.7965 15.8337 35.6669V24.3335ZM21.5004 21.5002C19.9356 21.5002 18.6671 22.7687 18.6671 24.3335V35.6669C18.6671 37.2317 19.9356 38.5002 21.5004 38.5002H38.5004C40.0652 38.5002 41.3337 37.2317 41.3337 35.6669V24.3335C41.3337 22.7687 40.0652 21.5002 38.5004 21.5002H21.5004Z" fill="#FFFAFF"/>
<path fill-rule="evenodd" clip-rule="evenodd" d="M42.75 28.5833H17.25V25.75H42.75V28.5833Z" fill="#FFFAFF"/>
<path fill-rule="evenodd" clip-rule="evenodd" d="M31.4163 34.2498C31.4163 33.4674 32.0505 32.8331 32.8329 32.8331L37.0829 32.8331C37.8653 32.8331 38.4996 33.4674 38.4996 34.2498C38.4996 35.0322 37.8653 35.6665 37.0829 35.6665L32.8329 35.6665C32.0505 35.6665 31.4163 35.0322 31.4163 34.2498Z" fill="#FFFAFF"/>
</svg>
