<svg width="19" height="19" viewBox="0 0 19 19" fill="none" xmlns="http://www.w3.org/2000/svg">
<path d="M16.1899 16.19H13.3744V11.7809C13.3744 10.7294 13.3556 9.37642 11.91 9.37642C10.4437 9.37642 10.219 10.5215 10.219 11.705V16.19H7.4044V7.1227H10.1076V8.36145H10.145C10.6965 7.41951 11.7208 6.85678 12.8116 6.89705C15.6655 6.89705 16.1908 8.77436 16.1908 11.2153L16.1899 16.19ZM4.22748 5.88301C3.32487 5.88301 2.5936 5.15175 2.5936 4.24914C2.5936 3.34653 3.32487 2.61526 4.22748 2.61526C5.13009 2.61526 5.86135 3.34653 5.86135 4.24914C5.86135 5.15175 5.13009 5.88301 4.22748 5.88301ZM5.63476 16.19H2.81644V7.1227H5.63476V16.19ZM17.5934 0.00106421H1.40167C0.636696 -0.00736265 0.00936318 0.605926 0 1.3709V17.6291C0.00936318 18.395 0.636696 19.0083 1.40167 18.9999H17.5934C18.3603 19.0093 18.9904 18.396 19.0007 17.6291V1.36996C18.9895 0.603117 18.3593 -0.0101716 17.5934 0.00012785" fill="#FFFAFF"/>
</svg>
