<svg width="60" height="60" viewBox="0 0 60 60" fill="none" xmlns="http://www.w3.org/2000/svg">
<rect width="60" height="60" rx="18" fill="#00F59B"/>
<path fill-rule="evenodd" clip-rule="evenodd" d="M15.8333 24.3333C15.8333 21.2037 18.3703 18.6666 21.4999 18.6666H38.4999C41.6295 18.6666 44.1666 21.2037 44.1666 24.3333V35.6666C44.1666 38.7962 41.6295 41.3333 38.4999 41.3333H21.4999C18.3703 41.3333 15.8333 38.7962 15.8333 35.6666V24.3333ZM21.4999 21.5C19.9351 21.5 18.6666 22.7685 18.6666 24.3333V35.6666C18.6666 37.2314 19.9351 38.5 21.4999 38.5H38.4999C40.0647 38.5 41.3333 37.2314 41.3333 35.6666V24.3333C41.3333 22.7685 40.0647 21.5 38.4999 21.5H21.4999Z" fill="#151531"/>
<path fill-rule="evenodd" clip-rule="evenodd" d="M21.8105 24.8651C22.2993 24.2542 23.1907 24.1551 23.8017 24.6439L30.0001 29.6025L36.1984 24.6439C36.8094 24.1551 37.7009 24.2542 38.1896 24.8651C38.6784 25.4761 38.5793 26.3676 37.9684 26.8563L30.0001 33.231L22.0317 26.8563C21.4208 26.3676 21.3217 25.4761 21.8105 24.8651Z" fill="#151531"/>
</svg>
