<svg width="60" height="60" viewBox="0 0 60 60" fill="none" xmlns="http://www.w3.org/2000/svg">
<rect width="60" height="60" rx="18" fill="#9D0AFF"/>
<path fill-rule="evenodd" clip-rule="evenodd" d="M25.3984 20.5078C24.4159 21.6279 23.8611 23.2519 23.8611 25.1834V27.6389C23.8611 28.858 23.3125 29.8708 22.7308 30.6425C22.1989 31.3483 21.5365 31.9819 21.0163 32.4795C20.9726 32.5213 20.93 32.5621 20.8884 32.602C20.4018 33.0688 20.0833 33.7027 20.0833 34.4389C20.0833 35.1829 20.641 35.6667 21.1852 35.6667H38.8148C39.359 35.6667 39.9167 35.1829 39.9167 34.4389C39.9167 33.7027 39.5982 33.0688 39.1116 32.602C39.07 32.5621 39.0274 32.5213 38.9837 32.4795C38.4635 31.9819 37.8011 31.3483 37.2692 30.6425C36.6875 29.8708 36.1389 28.858 36.1389 27.6389V25.1834C36.1389 23.2519 35.5841 21.628 34.6016 20.5078C33.6426 19.4145 32.1605 18.6667 30 18.6667C27.8395 18.6667 26.3574 19.4145 25.3984 20.5078ZM23.2683 18.6395C24.8278 16.8616 27.1235 15.8334 30 15.8334C32.8765 15.8334 35.1722 16.8616 36.7317 18.6395C38.2677 20.3907 38.9722 22.7333 38.9722 25.1834V27.6389C38.9722 27.9846 39.1274 28.4005 39.5318 28.9372C39.9195 29.4516 40.4228 29.9341 40.9788 30.467C41.0101 30.497 41.0415 30.5271 41.0731 30.5574C42.0417 31.4867 42.75 32.8329 42.75 34.4389C42.75 36.6159 41.0525 38.5 38.8148 38.5H21.1852C18.9475 38.5 17.25 36.6159 17.25 34.4389C17.25 32.8329 17.9583 31.4867 18.9269 30.5574C18.9585 30.5271 18.9899 30.497 19.0211 30.467C19.5772 29.9341 20.0805 29.4516 20.4682 28.9372C20.8726 28.4005 21.0278 27.9846 21.0278 27.6389V25.1834C21.0278 22.7333 21.7323 20.3907 23.2683 18.6395Z" fill="#FFFAFF"/>
<path fill-rule="evenodd" clip-rule="evenodd" d="M26.3778 40.1567C27.0276 39.721 27.9076 39.8945 28.3434 40.5443C28.4842 40.7542 28.7029 40.9523 28.997 41.0988C29.2915 41.2455 29.6381 41.3283 30.0001 41.3283C30.3622 41.3283 30.7088 41.2455 31.0033 41.0988C31.2974 40.9523 31.5161 40.7542 31.6569 40.5443C32.0927 39.8945 32.9727 39.721 33.6225 40.1567C34.2723 40.5925 34.4458 41.4725 34.0101 42.1224C33.575 42.7711 32.9672 43.2859 32.2668 43.6348C31.5667 43.9836 30.7858 44.1616 30.0001 44.1616C29.2145 44.1616 28.4336 43.9836 27.7335 43.6348C27.0331 43.2859 26.4253 42.7711 25.9902 42.1224C25.5545 41.4725 25.728 40.5925 26.3778 40.1567Z" fill="#FFFAFF"/>
</svg>
