<svg width="332" height="332" viewBox="0 0 332 332" fill="none" xmlns="http://www.w3.org/2000/svg">
<path d="M262.834 116.532V96.8333C262.834 71.1515 252.632 46.5216 234.472 28.3618C216.312 10.2021 191.682 0 166 0C140.319 0 115.689 10.2021 97.5288 28.3618C79.369 46.5216 69.167 71.1515 69.167 96.8333V116.532C56.8465 121.909 46.3599 130.76 38.9896 142.002C31.6192 153.244 27.6847 166.391 27.667 179.833V262.833C27.689 281.171 34.9832 298.751 47.9497 311.717C60.9162 324.684 78.4963 331.978 96.8337 332H235.167C253.504 331.978 271.084 324.684 284.051 311.717C297.017 298.751 304.312 281.171 304.334 262.833V179.833C304.316 166.391 300.381 153.244 293.011 142.002C285.641 130.76 275.154 121.909 262.834 116.532V116.532ZM96.8337 96.8333C96.8337 78.4892 104.121 60.8964 117.092 47.9251C130.063 34.9538 147.656 27.6667 166 27.6667C184.344 27.6667 201.937 34.9538 214.909 47.9251C227.88 60.8964 235.167 78.4892 235.167 96.8333V110.667H96.8337V96.8333ZM276.667 262.833C276.667 273.84 272.295 284.396 264.512 292.178C256.729 299.961 246.173 304.333 235.167 304.333H96.8337C85.8272 304.333 75.2715 299.961 67.4887 292.178C59.706 284.396 55.3337 273.84 55.3337 262.833V179.833C55.3337 168.827 59.706 158.271 67.4887 150.488C75.2715 142.706 85.8272 138.333 96.8337 138.333H235.167C246.173 138.333 256.729 142.706 264.512 150.488C272.295 158.271 276.667 168.827 276.667 179.833V262.833Z" fill="#151531"/>
<g clip-path="url(#clip0_309_1146)">
<path d="M143.15 280.998C133.948 280.992 125.059 277.658 118.122 271.611C111.186 265.564 106.671 257.213 105.41 248.097C104.149 238.982 106.227 229.718 111.261 222.015C116.295 214.312 123.946 208.69 132.801 206.186C139.237 204.343 146.049 204.259 152.529 205.942L192.728 165.753C194.862 163.605 197.402 161.901 200.199 160.741C202.997 159.582 205.997 158.989 209.025 158.998V158.998C213.791 159.002 218.361 160.897 221.731 164.267C225.101 167.637 226.996 172.206 227 176.972C227.008 180.001 226.415 183.001 225.257 185.799C224.098 188.597 222.396 191.138 220.249 193.275L216.833 196.691C214.922 198.589 212.339 199.657 209.646 199.664H201.583V204.748C201.583 207.444 200.512 210.03 198.606 211.937C196.699 213.843 194.113 214.914 191.417 214.914H186.333V222.976C186.337 224.312 186.076 225.635 185.564 226.869C185.053 228.103 184.302 229.223 183.355 230.164L180.05 233.468C181.743 239.945 181.66 246.758 179.811 253.192C177.731 260.522 173.51 267.064 167.688 271.981C161.867 276.897 154.711 279.965 147.136 280.789C145.812 280.927 144.482 280.996 143.15 280.998V280.998ZM143.15 214.914C137.946 214.909 132.843 216.357 128.417 219.095C123.991 221.832 120.416 225.751 118.096 230.41C115.776 235.069 114.803 240.283 115.286 245.465C115.768 250.647 117.688 255.592 120.828 259.742C123.969 263.893 128.205 267.084 133.061 268.957C137.917 270.831 143.199 271.311 148.313 270.345C153.427 269.379 158.17 267.005 162.008 263.489C165.846 259.974 168.626 255.457 170.036 250.447C171.622 244.939 171.444 239.073 169.528 233.672C169.215 232.77 169.163 231.798 169.377 230.867C169.591 229.937 170.062 229.085 170.738 228.411L176.167 222.976V214.914C176.167 212.218 177.238 209.632 179.144 207.725C181.051 205.819 183.637 204.748 186.333 204.748H191.417V199.664C191.417 196.968 192.488 194.382 194.394 192.475C196.301 190.569 198.887 189.498 201.583 189.498H209.646L213.062 186.082C214.261 184.888 215.212 183.468 215.859 181.905C216.507 180.341 216.838 178.665 216.833 176.972C216.832 174.903 216.01 172.918 214.547 171.455C213.084 169.991 211.1 169.167 209.03 169.164C207.337 169.16 205.66 169.492 204.095 170.14C202.531 170.788 201.11 171.74 199.916 172.941L157.567 215.285C156.891 215.961 156.038 216.432 155.107 216.645C154.175 216.858 153.203 216.805 152.3 216.49C149.352 215.452 146.25 214.919 143.125 214.914H143.15ZM130.417 250.498C130.417 251.503 130.715 252.486 131.273 253.322C131.832 254.158 132.626 254.809 133.555 255.194C134.484 255.579 135.506 255.679 136.492 255.483C137.478 255.287 138.384 254.803 139.095 254.092C139.805 253.381 140.29 252.475 140.486 251.489C140.682 250.503 140.581 249.481 140.196 248.552C139.812 247.623 139.16 246.83 138.324 246.271C137.488 245.712 136.505 245.414 135.5 245.414C134.152 245.414 132.859 245.95 131.906 246.903C130.952 247.857 130.417 249.149 130.417 250.498Z" fill="#00F59B"/>
</g>
<defs>
<clipPath id="clip0_309_1146">
<rect width="122" height="122" fill="white" transform="translate(105 159)"/>
</clipPath>
</defs>
</svg>
