<svg width="60" height="60" viewBox="0 0 60 60" fill="none" xmlns="http://www.w3.org/2000/svg">
<rect width="60" height="60" rx="18" fill="#00F59B"/>
<path fill-rule="evenodd" clip-rule="evenodd" d="M15.8333 24.3333C15.8333 20.4213 19.0046 17.25 22.9166 17.25H37.0833C40.9953 17.25 44.1666 20.4213 44.1666 24.3333V37.0833C44.1666 40.9954 40.9953 44.1667 37.0833 44.1667H22.9166C19.0046 44.1667 15.8333 40.9953 15.8333 37.0833V24.3333ZM22.9166 20.0833C20.5694 20.0833 18.6666 21.9861 18.6666 24.3333V37.0833C18.6666 39.4305 20.5694 41.3333 22.9166 41.3333H37.0833C39.4305 41.3333 41.3333 39.4305 41.3333 37.0833V24.3333C41.3333 21.9861 39.4305 20.0833 37.0833 20.0833H22.9166Z" fill="#151531"/>
<path fill-rule="evenodd" clip-rule="evenodd" d="M24.3334 15.8334C25.1158 15.8334 25.7501 16.4676 25.7501 17.25V21.5C25.7501 22.2824 25.1158 22.9167 24.3334 22.9167C23.551 22.9167 22.9167 22.2824 22.9167 21.5V17.25C22.9167 16.4676 23.551 15.8334 24.3334 15.8334Z" fill="#151531"/>
<path fill-rule="evenodd" clip-rule="evenodd" d="M21.5 27.1667C21.5 26.3843 22.1343 25.75 22.9167 25.75H37.0833C37.8657 25.75 38.5 26.3843 38.5 27.1667C38.5 27.9491 37.8657 28.5833 37.0833 28.5833H22.9167C22.1343 28.5833 21.5 27.9491 21.5 27.1667Z" fill="#151531"/>
<path fill-rule="evenodd" clip-rule="evenodd" d="M34.25 37.0833C34.25 36.3009 34.8843 35.6666 35.6667 35.6666L37.0833 35.6666C37.8657 35.6666 38.5 36.3009 38.5 37.0833C38.5 37.8657 37.8657 38.5 37.0833 38.5H35.6667C34.8843 38.5 34.25 37.8657 34.25 37.0833Z" fill="#151531"/>
<path fill-rule="evenodd" clip-rule="evenodd" d="M35.6667 15.8334C36.4491 15.8334 37.0833 16.4676 37.0833 17.25V21.5C37.0833 22.2824 36.4491 22.9167 35.6667 22.9167C34.8843 22.9167 34.25 22.2824 34.25 21.5V17.25C34.25 16.4676 34.8843 15.8334 35.6667 15.8334Z" fill="#151531"/>
</svg>
