<svg width="108" height="30" viewBox="0 0 108 30" fill="none" xmlns="http://www.w3.org/2000/svg">
<path d="M45.54 18.08C48.56 18.08 50.58 16.1 50.58 13.14C50.58 10.18 48.56 8.2 45.54 8.2H39.54V23H42.78V18.08H45.54ZM44.82 11.08C46.38 11.08 47.16 11.76 47.16 13.14C47.16 14.52 46.38 15.2 44.82 15.2H42.78V11.08H44.82ZM56.3781 23.26C59.1181 23.26 61.0981 21.84 61.4581 19.62H58.6381C58.4181 20.34 57.5981 20.76 56.4381 20.76C55.0781 20.76 54.3381 20.14 54.1581 18.82L61.4181 18.78V18C61.4181 14.74 59.4581 12.68 56.3181 12.68C53.2981 12.68 51.1981 14.86 51.1981 17.98C51.1981 21.06 53.3581 23.26 56.3781 23.26ZM56.3381 15.18C57.5781 15.18 58.3581 15.86 58.3581 16.92H54.1981C54.4381 15.72 55.1181 15.18 56.3381 15.18ZM63.242 27.8H66.322V22C66.902 22.76 68.182 23.28 69.562 23.28C72.542 23.28 74.262 21 74.262 17.84C74.262 14.62 72.322 12.68 69.542 12.68C68.122 12.68 66.862 13.3 66.302 14.22L66.142 13H63.242V27.8ZM66.342 18C66.342 16.5 67.342 15.5 68.782 15.5C70.242 15.5 71.162 16.52 71.162 18C71.162 19.48 70.242 20.5 68.782 20.5C67.342 20.5 66.342 19.5 66.342 18ZM76.035 27.8H79.115V22C79.695 22.76 80.975 23.28 82.355 23.28C85.335 23.28 87.055 21 87.055 17.84C87.055 14.62 85.115 12.68 82.335 12.68C80.915 12.68 79.655 13.3 79.095 14.22L78.935 13H76.035V27.8ZM79.135 18C79.135 16.5 80.135 15.5 81.575 15.5C83.035 15.5 83.955 16.52 83.955 18C83.955 19.48 83.035 20.5 81.575 20.5C80.135 20.5 79.135 19.5 79.135 18ZM93.468 23.26C96.208 23.26 98.188 21.84 98.548 19.62H95.728C95.508 20.34 94.688 20.76 93.528 20.76C92.168 20.76 91.428 20.14 91.248 18.82L98.508 18.78V18C98.508 14.74 96.548 12.68 93.408 12.68C90.388 12.68 88.288 14.86 88.288 17.98C88.288 21.06 90.448 23.26 93.468 23.26ZM93.428 15.18C94.668 15.18 95.448 15.86 95.448 16.92H91.288C91.528 15.72 92.208 15.18 93.428 15.18ZM107.212 13C106.792 12.9 106.392 12.86 106.032 12.86C104.692 12.86 103.812 13.52 103.392 14.5L103.232 13.02H100.332V23H103.412V18.66C103.412 16.68 104.472 15.9 106.232 15.9H107.212V13Z" fill="#151531"/>
<rect width="30" height="30" rx="8" fill="#9D0AFF"/>
<rect x="9" y="9" width="12" height="4" rx="0.8" fill="#FFFAFF"/>
<rect x="9" y="17" width="12" height="4" rx="0.8" fill="#FFFAFF"/>
</svg>
